<?xml version="1.0" encoding="utf-8"?>
<!-- Generator: Adobe Illustrator 16.0.0, SVG Export Plug-In . SVG Version: 6.00 Build 0)  -->
<!DOCTYPE svg PUBLIC "-//W3C//DTD SVG 1.1//EN" "http://www.w3.org/Graphics/SVG/1.1/DTD/svg11.dtd" [
	<!ENTITY ns_flows "http://ns.adobe.com/Flows/1.0/">
	<!ENTITY ns_extend "http://ns.adobe.com/Extensibility/1.0/">
	<!ENTITY ns_ai "http://ns.adobe.com/AdobeIllustrator/10.0/">
	<!ENTITY ns_graphs "http://ns.adobe.com/Graphs/1.0/">
]>
<svg version="1.1" id="Layer_1" xmlns:x="&ns_extend;" xmlns:i="&ns_ai;" xmlns:graph="&ns_graphs;"
	 xmlns="http://www.w3.org/2000/svg" xmlns:xlink="http://www.w3.org/1999/xlink" xmlns:a="http://ns.adobe.com/AdobeSVGViewerExtensions/3.0/"
	 x="0px" y="0px" width="864px" height="864px" viewBox="0 0 864 864" enable-background="new 0 0 864 864" xml:space="preserve">
<path fill-rule="evenodd" clip-rule="evenodd" d="M27.169,495.198c7.222-0.517,10.906-4.268,14.649-10.848
	c5.384-9.465,13.733-17.244,22.438-27.689c3.061-14.901,6.277-33.345,10.738-51.481c4.322-17.573,17.945-26.199,34.323-29.916
	c16.503-3.745,33.328-6.243,50.116-8.52c35.083-4.757,66.674-16.947,92.34-42.088c6.096-5.971,9.904-12.242,4.875-21.8
	c-3.425-6.511-2.089-13.713,1.477-21.671c3.452-7.705,1.434-18.249,0.575-27.429c-3.232-34.534-0.679-67.971,16.574-99.026
	c3.673-6.612,10.514-13.458,10.174-19.895c-0.743-14.098,8.605-24.051,11.225-36.51c1.894-9.005,12.3-13.817,22.561-11.887
	c2.781,0.523,6.297,1.434,8.463,0.275c19.523-10.451,38.86-6.087,58.17,0.215c13.913,4.541,27.516,10.148,41.611,13.976
	c9.747,2.646,20.096,3.066,32.373,4.789c-2.435-10.845-5.143-19.06-5.883-27.447c-0.566-6.417-0.636-17.142,2.596-18.715
	c6.127-2.982,15.439-2.611,22.192-0.187c6.32,2.269,11.038,9.001,17.049,14.284c0.187-0.432,0.743-1.361,1.005-2.366
	c6.383-24.599,24.463-34.404,47.685-37.289c9.267-1.152,18.716-2.292,27.974-1.71c13.647,0.857,25.568-1.301,34.516-12.556
	c3.344,0,6.688,0,10.031,0c1.304,5.108,3.396,10.161,3.758,15.334c0.977,13.998,2.121,28.089,1.486,42.065
	c-0.593,13.051,3.021,23.151,11.09,33.676c9.072,11.832,18.624,21.946,31.437,29.741c7.758,4.72,14.744,11.65,20.197,18.985
	c7.739,10.41,5.108,20.439-5.842,33.302c-7.521,8.835-12.963-0.603-19.348-1.736c-0.27-0.048-0.572,0.098-0.78,0.138
	c0.924,17.212,2.024,34.391,12.621,49.096c1.933,2.68,4.476,5.01,5.978,7.896c4.229,8.126,11.255,16.421,11.352,24.717
	c0.176,14.896,5.99,26.692,12.837,38.785c2.282,4.029,3.903,8.467,5.521,12.831c8.438,22.757,19.772,43.455,37.321,60.893
	c15.086,14.99,24.952,33.733,30.912,54.22c2.912,10.012,4.846,20.308,7.23,30.502c18.158-13.108,21.219-38.02,5.562-56.199
	c-7.952-9.233-18.341-16.386-27.742-24.347c-8.875-7.515-19.01-13.875-26.602-22.494c-11.998-13.621-8.231-27.668,8.605-34.028
	c8.915-3.367,18.775-4.149,28.101-6.522c18.984-4.832,42.938,1.333,53.124-25.845c2.617,3.534,4.232,5.714,5.848,7.896
	c0,4.013,0,8.025,0,12.038c-8.767,13.794-22.804,18.705-37.644,21.955c-12.188,2.667-24.495,4.788-39.86,7.75
	c5.253,5.693,8.071,9.633,11.715,12.536c11.202,8.921,22.628,17.571,34.135,26.099c37.601,27.872,30.574,94.623-14.655,110.034
	c-2.628,0.896-5.194,5.327-5.735,8.467c-4.969,28.837-11.481,56.855-33.276,78.631c-1.665,1.664-1.812,6.046-1.062,8.713
	c3.055,10.864,6.317,21.712,10.324,32.254c2.862,7.53,2.099,13.484-4.191,18.579c-4.013,0-8.025,0-12.038,0
	c-6.312-9.767-13.052-19.288-18.837-29.358c-8.352-14.537-8.056-14.705-24.625-11.692c-20.92,3.802-39.962,1.094-54.904-15.837
	c-9.937-11.257-20.16-22.277-29.689-33.868c-4.124-5.015-8.122-7.507-14.953-7.519c-74.202-0.127-148.423,0.272-222.602-1.252
	c-103.396-2.124-207.014,6.32-310.218-6.459c-9.82-1.215-16.359-5.147-20.943-12.98c-4.848-8.282-8.998-16.974-13.452-25.486
	C27.169,499.211,27.169,497.204,27.169,495.198z M573.256,237.568c-1.166,2.031-2.33,4.062-3.653,6.366
	c19.152,1.984,23.658,0.745,36.016-9.764c-5.22-4.339-9.524-11.172-17.563-4.545c1.662-2.295,3.324-4.59,5.165-7.133
	c-2.489-3.058-4.688-5.76-6.507-7.995c-14.97,5.069-30.63,7.902-31.514,29.077C561.309,241.542,567.282,239.555,573.256,237.568z
	 M639.13,392.748c6.33,4.449,12.386,3.222,17.1-2.092c1.86-2.096,1.525-6.14,2.699-11.718c-7.892,5.258-12.961,8.634-18.029,12.011
	c4.688-5.071,9.375-10.141,14.062-15.212c-0.521-0.687-1.04-1.375-1.561-2.061c-18.256,5.614-41.467,0.53-52.651,27.484
	C614.924,398.054,627.027,395.401,639.13,392.748z M611.455,152.531c-10.669-7.99-21.338-15.981-32.006-23.971
	c-0.588,0.593-1.175,1.187-1.763,1.779c6.612,6.653,12.479,14.329,19.972,19.77c23.812,17.291,44.188,36.83,48.251,67.789
	c1.576,12.007,9.251,18.001,18.955,23.025c-1.201-3.386-3.638-6.054-5.038-9.185c-2.541-5.679-6.633-11.777-6.258-17.448
	c1.357-20.578-9.519-33.794-24.046-45.625c-6.385-5.198-12.297-10.977-18.439-16.506c4.085,2.026,8.17,4.052,13.139,6.517
	c-2.562-13.812-14.451-28.542-25.414-29.255C603.533,138.055,607.494,145.292,611.455,152.531z M609.817,271.31
	c-8.105,5.203-16.211,10.404-25.228,16.192c15.273,4.312,23.86-6.336,34.441-11.111c1.254-0.566,1.28-3.854,1.876-5.881
	c-2.218-0.239-4.436-0.479-6.653-0.719c0.413-1.534,0.825-3.069,1.142-4.246c-15.501,0-31.731-3.151-45.899,0.903
	c-13.636,3.901-28.668,9.65-38.505,22.314c21.133,0.174,42.372,5.147,60.825-9.428C596.812,275.388,603.764,273.917,609.817,271.31z
	 M648.637,323.953c-12.342,2.236-24.637,4.779-37.034,6.639c-23.229,3.485-46.52,6.574-69.739,9.823
	c1.183,10.654,8.261,8.924,13.82,8.093c25.582-3.825,51.121-7.954,76.617-12.311c8.49-1.451,16.807-3.91,25.202-5.907
	c0.02-1.076,0.038-2.15,0.058-3.225c-3.059-1-6.118-2.001-9.178-3.001c4.661,0.707,9.323,1.414,13.984,2.12
	c-3.105,3.697-6.212,7.395-10.54,12.547c1.088,13.347,3.334,15.582,18.126,18.583c2.77,0.562,4.905,4.249,7.333,6.494
	c-2.121,1.877-3.979,4.301-6.434,5.491c-2.872,1.39-6.266,1.703-9.862,2.588c3.536,12.587,2.375,28.031,22.015,27.418
	c1.51-0.047,4.38,4.069,4.348,6.214c-0.028,1.811-3.073,4.304-5.297,5.16c-2.59,0.998-5.739,0.543-8.549,0.711
	c-0.906,8.978-0.226,15.446,11.122,13.914c2.219-0.3,5.019,3.706,7.551,5.726c-2.282,1.936-4.487,5.403-6.861,5.523
	c-7.52,0.379-9.463,4.161-11.103,10.976c-3.905,16.226-20.729,24.258-31.903,15.008c-6.799-5.627-11.401-4.207-17.245-0.35
	c-1.938,1.28-3.956,3.264-6,3.343c-2.443,0.093-4.951-1.511-7.432-2.38c1.235-2.069,2.472-4.138,3.707-6.206
	c1.687,9.258,6.837,3.109,9.997,1.811c18.663-7.672,37.182-15.692,55.684-23.752c2.462-1.072,4.541-3.023,6.799-4.568
	c-0.427-0.914-0.854-1.829-1.281-2.743c-10.83-0.883-21.101,2.065-30.917,6.574c-11.699,5.377-23.142,11.315-34.695,17.011
	c-2.207-4.715-4.414-9.43-7.401-15.81c-4.313,4.86-6.305,8.041-9.138,10.015c-2.48,1.729-5.904,2.1-8.912,3.071
	c-0.091-3.422-1.262-7.318-0.013-10.149c1.776-4.027,5.33-7.272,8.478-11.302c-5.498-4.271-10.117-7.859-14.938-11.605
	c-1.964,1.761-3.222,3.588-4.935,4.265c-2.602,1.026-5.521,1.255-8.304,1.822c-0.33-2.591-1.541-5.452-0.843-7.728
	c3.599-11.751-10.188-27.391-22.513-25.525c-2.175,0.329-4.646-1.295-6.979-2.017c1.135-2.52,2.268-5.038,3.402-7.558
	c-2.593,5.49-0.174,8.814,4.642,5.329c14.439-10.451,28.055-22.041,41.991-33.186c-1.045-1.432-2.09-2.864-3.136-4.296
	c-5.26,3.104-10.846,5.769-15.707,9.406c-8.918,6.672-17.408,13.917-26.077,20.923c0.182-2.094,1.262-4.712,0.397-6.199
	c-5.446-9.366-11.324-18.48-16.994-27.572c-4.938,2.329-9.012,4.25-13.429,6.333c4.726,11.39,8.97,22.548,13.951,33.366
	c5.143,11.168,11.831,21.675,16.363,33.061c7.479,18.789,14.88,37.74,20.337,57.176c12.254,43.654,42.712,73.326,76.279,100.099
	c27.591,22.006,69.531,15.399,89.119-14.199c10.462-15.808,17.89-34.165,23.855-52.303c15.42-46.877,8.37-89.654-28.666-124.62
	c-14.845-14.017-23.122-31.379-30.616-49.702c-4.546-11.117-10.546-21.638-16.049-32.742c-19.15,13.72-29.25,20.595-40.825-1.57
	c-4.312,1.786-8.585,3.555-14.897,6.169C636.523,311.507,642.616,317.714,648.637,323.953z M240.042,380.928
	c-4.801-4.232-9.602-8.464-14.403-12.696c-0.938,0.802-1.876,1.606-2.813,2.408c3.712,4.758,7.423,9.517,11.136,14.275
	c-4.074-1.767-8.147-3.535-14.064-6.103c-0.44,7.118-0.576,12.867-1.26,18.549c-0.259,2.147-1.782,4.142-2.729,6.206
	c-2.14-1.406-5.585-2.407-6.17-4.295c-1.615-5.206-2.032-10.783-2.922-16.215c-9.343,1.88-9.388,1.882-9.089,9.438
	c0.144,3.662,0.848,7.337,0.624,10.964c-0.154,2.477-1.477,4.879-2.277,7.316c-2.139-1.908-5.476-3.443-6.208-5.791
	c-3.05-9.788-5.744-19.29-19.376-16.544c-0.562,0.113-1.422-1.258-2.879-2.63c3.547-3.333,7.009-6.585,11.939-11.217
	c-27.791,0.291-53.258,3.643-77.303,13.865c-20.94,8.901-21.446,28.874-22.691,47.418c-0.981,14.637,14.258,13.271,21.867,19.481
	c1.222,0.997,3.067,1.204,4.586,1.865c25.622,11.16,53.241,13.35,80.28,18.441c31.71,5.973,62.303,3.623,92.15-8.071
	c14.231-5.575,28.113-12.065,42.033-18.403c40.065-18.239,81.3-28.276,125.948-22.895c20.323,2.449,41.353,2.919,61.206-5.206
	c11.061-4.527,19.319-11.542,22.022-23.824c2.212-10.044-4.16-19.59-13.616-20.997c-2.291-0.341-5.169-2.429-6.206-4.5
	c-4.105-8.196-9.23-16.378-10.965-25.162c-3.827-19.37-1.459-39.564-10.886-58.343c-12.11-24.125-15.45-50.252-15.984-77.411
	c-0.641-32.524-4.884-64.975-7.643-98.363c-26.183,2.116-50.1-3.785-73.581-12.786c-10.166-3.897-20.834-6.94-31.545-8.841
	c-15.588-2.767-37.212,5.519-38.413,28.209c7.678-1.23,15.365-1.516,22.373-3.841c7.673-2.548,12.059,0.559,14.276,6.656
	c2.5,6.875-1.558,11.621-8.059,13.695c-2.742,0.874-5.952,0.286-8.948,0.363c-1.014-2.903-2.029-5.806-3.314-9.482
	c-5.086,3.291-9.501,5.586-13.239,8.697c-5.498,4.576-5.417,8.689,2.192,10.971c-0.908,3.681-1.817,7.362-3.065,12.42
	c10.136-2.464,18.023-5.185,26.104-6.001c3.882-0.393,9.869,1.716,11.733,4.683c1.966,3.13,1.667,9.595-0.403,12.845
	c-2.394,3.757-7.579,6.058-11.954,8.153c-5.921,2.833-12.224,4.867-18.362,7.244c0.205,1.552,0.41,3.104,0.614,4.657
	c7.275,0,14.549,0,21.824,0c0.212,4.738,0.164,9.52,0.948,14.161c0.105,0.62,6.306,1.19,6.494,0.656
	c1.328-3.76,1.821-7.814,2.58-11.775c0.994,3.653,3.917,8.687,2.524,10.634c-2.057,2.877-7.174,3.583-11.004,5.172
	c-5.761,2.39-11.538,4.745-17.309,7.115c5.374,2.064,10.665,4.392,16.15,6.1c3.644,1.133,7.563,1.381,11.365,2.038
	c-1.316,0.06-2.634,0.194-3.948,0.167c-5.892-0.121-9.499,2.949-7.859,8.496c0.757,2.563,5.508,3.945,8.449,5.862
	c1.583-3.44,3.44-6.793,4.596-10.372c0.389-1.207-1.005-2.989-1.583-4.508c1.493,4.174,4.634,8.663,3.917,12.416
	c-0.5,2.615-6.064,4.918-9.768,6.1c-4.577,1.462-9.57,1.618-15.757,2.545c16.395,25.889,23.211,52.069,12.553,81.312
	c-8.074-1.869-10.203-4.833-9.761-12.738c0.616-11.038-1.729-22.296-3.453-33.36c-0.335-2.149-3.625-3.838-5.551-5.741
	c-0.887,0.854-1.774,1.708-2.661,2.562c2.314,3.05,5.026,5.892,6.791,9.233c0.995,1.884,0.43,4.592,0.568,6.928
	c-2.034-0.16-4.604,0.415-6.007-0.609c-5.455-3.982-10.538-8.473-15.992-12.967c-1.864,3.355-3.913,7.042-5.942,10.695
	c6.527,4.572,12.662,8.406,18.176,12.988c1.877,1.56,2.193,4.999,3.223,7.58c-2.521-0.091-5.28,0.445-7.516-0.402
	c-4.658-1.764-9.04-4.257-13.536-6.452c-0.736,0.831-1.473,1.662-2.208,2.492c3.106,5.141,6.528,10.126,9.169,15.497
	c1.1,2.236,0.538,5.289,0.731,7.972c-2.4-0.292-5.592,0.295-7.064-1.029c-5.909-5.313-11.287-11.219-19.002-19.092
	c0,5.565-1.598,10.961,0.378,14.125c2.893,4.632,8.715,7.328,12.539,11.531c1.677,1.844,1.502,5.371,2.169,8.135
	c-2.762-0.782-5.868-1.01-8.206-2.47c-3.908-2.442-7.324-5.672-10.947-8.571c-0.92,0.616-1.841,1.232-2.761,1.849
	c1.625,6.122,3.436,12.203,4.775,18.388c0.491,2.268-0.139,4.78-0.258,7.18c-2.306-0.576-5.396-0.409-6.773-1.865
	c-4.4-4.649-8.164-9.901-12.043-14.76c-3.105,2.207-6.223,4.424-8.012,5.695c5.277,7.104,9.437,12.132,12.816,17.637
	c0.884,1.441-0.654,4.368-1.081,6.613c-1.869-0.835-3.95-1.381-5.564-2.564c-3.537-2.591-6.837-5.504-10.234-8.286
	c-1.575,5.973-0.924,10.149-0.541,14.349c0.241,2.653,0.082,5.342,0.103,8.015c-3.008-1.161-7.567-1.492-8.72-3.646
	c-2.884-5.395-4.224-11.615-6.485-18.41c-3.842,2.22-7.889,4.557-11.771,6.799C236.502,373.938,238.271,377.433,240.042,380.928z
	 M257.251,494.342c-14.414,0.909-27.989,2.172-41.584,2.457c-7.18,0.15-12.895,0.549-18.158,7.003
	c-3.311,4.061-10.204,6.239-15.833,7.159c-12.479,2.038-25.185,3.845-37.779,3.732c-16.905-0.148-34.009-0.947-50.622-3.814
	c-14.135-2.44-16.348-11.907-7.244-23.449c2.953-3.743,6.341-7.143,9.517-10.684c-6.77-3.52-12.544-6.881-18.637-9.501
	c-2.294-0.987-6.494-1.433-7.834-0.109c-7.928,7.825-15.433,16.104-22.726,24.537c-2.716,3.141-4.473,7.106-8.196,13.197
	c3.197,5.559,7.519,13.638,12.458,21.319c1.46,2.27,4.504,4.536,7.09,4.898c15.104,2.116,30.28,5.108,45.445,5.182
	c148.787,0.725,297.579,0.939,446.368,1.252c5.605,0.012,13.213,0.547,12.737-7.119c-0.256-4.131-5.871-8.617-10.042-11.565
	c-2.62-1.852-7.035-1.302-10.664-1.56c-10.647-0.762-21.377-0.826-31.936-2.223c-10.749-1.421-21.711-4.501-25.805-15.937
	c-2.485-6.938-6.112-8.471-12.472-7.952c-4.598,0.376-9.251,0.073-13.691,0.073c-2.612,11.396-5.395,14.748-15.646,18.007
	c-5.354,1.702-10.924,3.676-16.432,3.788c-45.774,0.937-91.556,1.562-137.338,2.007c-6.287,0.062-12.667-0.993-18.866-2.226
	C257.722,510.501,254.964,506.138,257.251,494.342z M443.713,495.683c-6.626-1.066-11.894-1.826-17.126-2.779
	c-7.415-1.35-11.388-4.539-10.679-13.433c0.76-9.521-1.012-19.225-1.363-28.86c-0.286-7.853-4.09-9.941-11.6-9.294
	c-21.161,1.825-41.451,6.927-60.351,16.411c-20.807,10.439-41.07,21.958-61.625,32.904c-4.17,2.22-8.584,3.979-13.655,6.304
	C285.334,508.896,425.688,507.76,443.713,495.683z M595.245,82.783c1.179-10.539,2.068-20.455,3.459-30.3
	c1.159-8.212-2.827-11.016-10.184-10.647c-12.964,0.648-26.204,0.04-38.804,2.569c-13.336,2.676-28.614,3.94-36.995,16.969
	c-12.938,20.114-13.257,43.055-13.811,67.345c10.974-0.987,20.489-2.279,30.034-2.55c6.273-0.178,9.595-2.571,9.449-8.694
	c-0.193-8.156,4.699-11.521,11.298-14.527c2.961-1.349,5.854-4.86,6.911-8.016c3.572-10.669,8.846-15.172,20.649-14.863
	C582.827,80.217,588.366,81.698,595.245,82.783z M539.381,408.935c-1.198-0.304-2.397-0.606-3.596-0.909
	c-1.663,6.506-3.796,12.933-4.896,19.533c-2.782,16.702-5.086,33.485-7.609,50.231c-1.672,11.089-9.467,15.347-19.364,17.077
	c-2.851,0.497-5.781,0.54-8.674,0.792c-0.375,0.786-0.75,1.572-1.126,2.358c4.241,2.416,8.233,6.056,12.777,6.978
	c8.094,1.643,16.528,1.575,24.809,2.344c14.199,1.317,28.753,1.287,39.408,13.562c1.738,2.002,6.22,1.621,7.825,1.981
	C565.663,484.649,552.522,446.792,539.381,408.935z M569.908,118.938c-6.198,7.986-4.973,15.476-0.716,21.352
	c6.974,9.627,14.433,19.347,23.427,26.977c20.568,17.451,33.752,38.085,39.066,65.089c4.385,22.28,12.444,43.916,19.918,65.476
	c4.006,11.554,10.874,12.21,20.423,3.123c-16.377-22.816-24.228-49.083-28.75-76.451c-3.734-22.602-13.774-41.358-31.209-56.29
	C595.697,154.196,578.776,140.601,569.908,118.938z M562.598,95.716c27.128-2.943,44.604,10.968,58,32.592
	c7.362,11.884,14.824,23.855,23.636,34.649c7.746,9.489,17.433,17.394,27.587,27.291c4.091-7.862,6.601-12.687,9.23-17.74
	c-7.042-5.412-14.242-9.465-19.489-15.282c-11.312-12.542-22.433-25.419-32.134-39.213c-11.818-16.805-26.113-29.112-46.562-33.47
	C570.471,81.901,565.673,84.383,562.598,95.716z M775.21,489.042c0.845,0.797,1.689,1.593,2.535,2.389
	c13.93-2.885,23.293-11.969,29.577-24.142c13.859-26.844,6.463-55.951-18.424-75.482c-12.56-9.856-25.404-19.423-37.258-30.08
	c-8.902-8.005-6.605-16.606,4.902-20.049c8.219-2.459,16.924-3.245,25.343-5.095c12.99-2.854,26.824-3.662,36.042-12.666
	c-13.942,3.016-28.914,6.328-43.92,9.475c-9.055,1.898-18.511,2.536-27.166,5.534c-13.325,4.616-15.351,15.365-5.539,25.374
	c3.711,3.785,7.917,7.121,12.107,10.393c13.087,10.216,27.176,19.344,39.225,30.653c21.827,20.487,16.73,65.028-10.718,77.105
	C779.234,483.632,777.425,486.798,775.21,489.042z M349.646,321.371c0.77,0.008,1.54,0.016,2.309,0.024
	c0.739-1.299,1.835-2.514,2.161-3.91c4.399-18.831,2.556-36.867-6.405-54.224c-4.545-8.806-9.872-17.691-11.989-27.178
	c-6.058-27.149-10.854-54.591-15.735-81.99c-2.099-11.776-3.185-23.733-4.73-35.608c-1.33-0.05-2.659-0.1-3.988-0.15
	c-0.79,9.19-3.104,18.562-2.034,27.53c1.885,15.779,5.903,31.298,8.912,46.948c5.122,26.646,7.998,53.778,22.132,78.046
	c7.59,13.034,11.657,27.496,8.21,43.1C347.987,316.233,349.217,318.89,349.646,321.371z M473.61,150.448
	c1.126,15.916,2.333,32.772,3.508,49.631c1.179,16.924,0.397,34.273,3.989,50.667c4.156,18.968,12.147,37.098,18.474,55.59
	c1.299-0.207,2.598-0.414,3.896-0.622c0.286-4.844,2.73-11.522,0.461-14.194c-7.364-8.666-7.668-14.784,3.305-19.717
	c-1.843-6.54-3.206-12.355-11.711-11.297c-1.655,0.206-4.894-1.641-5.2-3.027c-1.697-7.672-4.08-15.622-3.37-23.21
	c0.339-3.626,6.988-6.663,11.346-10.46c-0.354-0.936-1.046-4.313-1.722-4.311c-11.377,0.05-9.291-9.256-11.569-15.775
	c-4.588-13.123-3.194-15.733,10.335-17.589c1.109-0.152,2.124-0.996,5.997-2.908c-4.578-1.513-6.58-2.62-8.657-2.788
	c-12.29-0.994-13.271-2.263-11.11-15.377c4.543-1.126,9.118-2.261,13.694-3.396c0.055-0.813,0.108-1.625,0.164-2.438
	C487.995,156.232,480.551,153.239,473.61,150.448z M473.516,134.655c3.162-1.343,7.382-2.754,11.199-4.883
	c2.761-1.539,6.982-3.885,7.146-6.122c1.576-21.47-4.872-40.678-18.833-57c-2.022-2.363-6.943-2.246-10.522-3.278
	c-0.619,3.389-2.3,6.984-1.688,10.132C464.924,94.636,469.518,115.671,473.516,134.655z M627.255,238.773
	c0.618-10.043-2.911-16.249-10.625-21.575c-6.677-4.609-14.528-10.671-16.871-17.743c-4.809-14.524-14.461-25.08-23.048-36.804
	c-5.036-6.878-8.357-15.008-12.504-22.545c-0.97-1.763-2.16-3.405-4.357-6.831c-3.293,13.818,2.266,23.089,7.76,32.375
	c6.904,11.671,15.283,22.737,20.37,35.153C595.654,219.536,610.272,229.53,627.255,238.773z M545.607,335.912
	c30.621-3.095,59.991-4.92,78.378-32.762c-11.392,0.504-22.91,0.908-34.409,1.618c-2.174,0.134-4.606,1.042-6.352,2.351
	C571.047,316.263,559.018,325.606,545.607,335.912z M527.598,303.492c2.202,0.446,3.782,1.093,5.333,1.031
	c31.992-1.296,63.987-2.581,95.967-4.187c2.938-0.148,5.768-2.454,8.648-3.757c-0.253-1.154-0.506-2.308-0.759-3.462
	c-35.738-6.865-71.691,2.022-107.689-0.899C528.508,296.655,528.08,299.863,527.598,303.492z M304.751,142.31
	c-1.092-0.064-2.185-0.128-3.277-0.192c6.877,40.901,13.965,81.833-15.225,118.611c5.994,0.51,14.002,1.508,15.57-1.208
	c9.429-16.351,19.154-33.3,15.745-53.3C313.915,184.811,309.072,163.604,304.751,142.31z M283.84,256.385
	c1.483-3.754,4.882-8.014,3.894-10.591c-4.674-12.185,1.331-22.028,5.612-32.281c4.592-10.994,10.09-21.429,8.928-34.201
	c-1.282-14.113-0.801-28.379-1.584-42.551c-0.101-1.814-3.18-3.463-4.879-5.189c-2.217,7.727-2.053,14.275-2.251,20.812
	c-0.383,12.591,0.85,25.6-1.958,37.65c-3.116,13.373-9.98,25.875-15.244,38.744C271.139,241.533,272.691,248.145,283.84,256.385z
	 M536.869,251.413c24.752-19.361,32.219-76.604,13.481-110.135C548.013,179.863,550.835,216.696,536.869,251.413z M525.117,278.059
	c-16.776,18.667-25.963,40.636-21.413,66.456c1.638,9.292,6.945,17.936,10.991,27.894c4.64-2.998,6.979-4.508,8.453-5.46
	C508.325,336.217,521.349,307.663,525.117,278.059z M268.542,274.197c1.024,0.313,2.049,0.627,3.074,0.94
	c1.613-5.48,6.354-13.31,4.305-16.039c-9.502-12.653-6.461-24.081-0.321-36.339c2.011-4.014,4.324-8.995,3.631-13.042
	c-2.449-14.317,2.21-26.71,7.746-39.327c2.453-5.59,3.056-11.992,4.499-18.024c-0.948-0.208-1.896-0.416-2.845-0.623
	C273.866,168.554,259.526,215.223,268.542,274.197z M670.387,424.506c-3.158-4.83-5.2-11.874-8.792-12.78
	c-16.773-4.23-34.589,5.196-42.407,20.202c3.27,3.968,6.368,7.729,8.949,10.86C642.116,436.738,655.111,431.115,670.387,424.506z
	 M92.653,501.666c30.895,5.259,60.65,1.7,90.329-0.211c-23.156-5.153-46.321-9.291-69.298-14.286
	C99.026,483.983,98.451,483.815,92.653,501.666z M673.475,365.163c-0.334-1.408-0.666-2.815-0.998-4.223
	c-36.716-2.123-70.495,10.134-104.4,23.691c3.541,2.216,7.302,3.522,10.574,2.752c24.459-5.756,48.804-11.999,73.226-17.915
	C659.005,367.743,666.271,366.583,673.475,365.163z M484.631,152.298c21.761-3.803,41.672-7.281,61.219-10.697
	c-1.572-11.039-7.054-12.347-14.166-11.618c-15.558,1.594-31.143,2.927-48.087,4.494
	C483.895,139.61,484.172,144.398,484.631,152.298z M682.486,406.5c-1.923-2.764-2.299-3.883-3.045-4.252
	c-1.44-0.711-3.104-1.442-4.65-1.394c-25.105,0.772-50.216,1.496-75.296,2.797c-2.456,0.128-4.718,3.975-7.069,6.094
	c0.479,1.015,0.957,2.03,1.436,3.045C622.881,410.729,651.9,408.67,682.486,406.5z M543.73,260.473
	c26.532,0,53.063,0.091,79.592-0.167c2.226-0.021,4.429-2.39,6.643-3.668c-2.25-1.393-4.411-3.817-6.765-4.021
	c-21.138-1.824-42.33-3.027-63.461-4.927C551.754,246.973,546.528,249.714,543.73,260.473z M572.867,374.494
	c26.089-2.839,39.709-10.624,59.434-33.247C604.968,337.747,590.718,358.265,572.867,374.494z M612.573,27.881
	c-6.301,0.163-11.208,1.526-11.321,8.534c-0.208,12.826,0.739,25.726-0.338,38.464c-0.813,9.603,1.907,15.094,11.659,17.146
	C612.573,70.626,612.573,49.446,612.573,27.881z M675.38,298.825c14.788-25.063-0.242-46.804-24.938-59.848
	c2.446,7.06,5.181,14.281,9.949,19.719c6.885,7.851,11.809,15.613,10.941,26.61C671.037,289.044,673.535,293.003,675.38,298.825z
	 M544.037,157.511c-18.101,2.976-35.432,5.641-52.662,8.851c-2.677,0.5-4.889,3.494-7.316,5.333c2.697,1.57,5.602,4.759,8.056,4.443
	c14.775-1.9,29.411-4.858,44.168-6.938C544.117,168.097,546.797,164.647,544.037,157.511z M489.875,240.191
	c1.136,1.125,2.272,2.252,3.409,3.379c12.654-4.404,25.295-8.849,37.97-13.194c7.578-2.597,9.343-8.254,8.837-16.663
	c-15.967,6.27-31.296,12.031-46.324,18.49C491.706,233.089,491.136,237.442,489.875,240.191z M485.321,197.385
	c0.929,1.344,1.857,2.688,2.786,4.032c16.924-2.832,33.911-5.365,50.696-8.863c2.181-0.454,3.324-5.878,5.423-9.912
	c-19.249,2.782-36.014,4.956-52.646,7.888C489.166,190.956,487.392,195.011,485.321,197.385z M542.025,195.643
	c-17.205,3.223-34.067,6.381-50.837,9.523c-2.232,6.768-0.24,10.089,6.856,8.982c12.45-1.944,24.892-3.972,37.289-6.219
	C541.733,206.77,544.363,202.875,542.025,195.643z M742.446,640.232c1.789-0.771,3.579-1.542,5.369-2.313
	c-0.909-17.466-13.385-30.59-18.796-47.276c-4.267,2.484-7.25,4.221-11.41,6.645C726.221,612.177,734.333,626.204,742.446,640.232z
	 M579.097,305.606c-18.784-1.348-56.245,25.123-55.156,38.654C542.123,331.519,559.559,319.298,579.097,305.606z M567.799,111.077
	c15.504,5.088,30.17,9.9,46.767,15.347c-7.604-12.783-17.507-18.719-28.897-23.307C577.258,99.727,572.696,102.951,567.799,111.077z
	 M495.032,256.481c8.794,0,17.398-0.586,25.885,0.162c8.949,0.789,11.806-3.365,11.658-12.228c-9.886,0-19.722,0.116-29.552-0.037
	C495.408,244.261,492.898,247.845,495.032,256.481z M293.715,269.69c-1.255-1.637-2.51-3.275-3.764-4.912
	c-3.768,2.181-8.048,3.803-11.179,6.678c-4.373,4.016-7.642,9.209-11.827,13.461c-6.438,6.541-6.641,7.188,0.569,17.178
	C276.5,290.98,285.107,280.335,293.715,269.69z M79.896,452.479c33.223,20.17,70.244,27.392,108.438,30.325
	C151.403,475.761,114.002,470.406,79.896,452.479z M313.496,323.722c-3.999-16.877-8.036-33.913-12.218-51.565
	C292.415,287.06,300.324,316.613,313.496,323.722z M279.774,302.606c-9.758,9.425-3.823,44.962,7.475,49.031
	C284.782,335.459,282.311,319.243,279.774,302.606z M257.161,379.372c0.768-17.464,1.483-33.71,2.242-50.979
	C249.611,337.02,248.259,369.855,257.161,379.372z M668.715,441.533c-10.072,4.516-19.021,8.527-28.984,12.994
	c6.285,7.025,12.018,8.028,18.725,4.621C664.926,455.862,669.539,451.453,668.715,441.533z M581.564,200.514
	c-18.728,4.598-18.728,4.598-19.281,17.219C579.556,216.969,587.08,210.25,581.564,200.514z M578.357,416.099
	c11.744-6.227,16.333-18.146,24.849-29.763C583.523,388.789,584.318,405.178,578.357,416.099z M640.87,288.061
	c-4.821-24.031-6.092-25.803-15.253-21.874c0.521,3.576,0.938,7.137,1.582,10.657c0.694,3.793,1.604,7.546,2.398,11.217
	C633.806,288.061,637.285,288.061,640.87,288.061z M628.006,415.26c-11.191-0.364-28.871,17.171-29.601,29.381
	C608.26,434.859,618.15,425.043,628.006,415.26z M644.302,336.527c-10.146,8.854-18.976,16.559-27.805,24.263
	C634.234,360.373,645.612,350.353,644.302,336.527z M224.258,354.329c-11.578,7.327-17.13,34.704-10.26,42.355
	C217.221,383.381,220.519,369.765,224.258,354.329z M335.196,272.856c-1.513-3.803-2.137-7.474-3.151-7.585
	c-8.093-0.889-16.259-1.165-24.408-1.373c-0.495-0.013-1.789,2.785-1.434,3.211c1.145,1.374,2.789,2.977,4.416,3.196
	C318.284,271.344,326.008,271.95,335.196,272.856z M196.517,406.845c-2.176-14.286-4.1-26.917-6.11-40.12
	C182.364,373.116,185.739,396.559,196.517,406.845z M532.231,278.71c10.35-5.33,18.671-9.616,26.994-13.903
	C536.202,260.934,535.892,261.086,532.231,278.71z M352.425,151.246c-3.352,5.43-7.29,9.113-6.581,11.274
	c1.168,3.565,5.339,6.146,8.245,9.142c2.045-2.862,5.836-5.821,5.687-8.563C359.597,159.824,356.043,156.733,352.425,151.246z
	 M543.239,177.723c-0.312-1.56-0.624-3.118-0.936-4.678c-12.288,2.309-24.574,4.618-36.86,6.927c0.319,1.59,0.639,3.179,0.958,4.769
	C518.681,182.402,530.959,180.062,543.239,177.723z M574.476,353.429c-0.401-0.644-0.802-1.287-1.204-1.93
	c-7.318,1.263-14.639,2.526-23.116,3.989c3.06,4.6,5.475,8.229,8.379,12.595C564.493,362.605,569.484,358.017,574.476,353.429z
	 M627.152,307.505c-8.019,6.31-15.467,12.17-24.337,19.149C618.384,326.881,629.601,318.108,627.152,307.505z M304.821,105.048
	c4.504,1.09,8.266,2,12.561,3.04c1.791-4.104,3.438-7.875,5.104-11.694C311.292,92.222,309.013,93.372,304.821,105.048z
	 M551.002,309.369c-0.312-0.922-0.624-1.843-0.936-2.764c-6.759,0.623-13.519,1.247-20.977,1.935
	c1.717,4.784,3.087,8.599,4.773,13.297C540.43,317.06,545.716,313.214,551.002,309.369z M521.394,424.084
	c-18.69,3.888-35.078,7.297-50.848,10.579C487.207,435.925,504.029,434.623,521.394,424.084z M262.469,345.963
	c6.999-5.513,13.458-9.491,8.633-18.71c-2.565,0-5.344,0-8.633,0C262.469,333.303,262.469,338.811,262.469,345.963z
	 M580.116,197.113c0.427-1.009,0.854-2.017,1.279-3.025c-2.88-1.766-5.911-5.194-8.607-4.948c-5.393,0.492-11.602,2.195-8.43,11.552
	C569.625,199.496,574.87,198.304,580.116,197.113z M347.479,174.55c-4.863-10.591-10.558-4.729-15.35-2.569
	c-2.048,0.923-3.01,4.261-4.464,6.5c0.833,0.749,1.666,1.497,2.498,2.245C335.81,178.713,341.457,176.699,347.479,174.55z
	 M289.49,238.514c1.248,0.403,2.496,0.806,3.744,1.209c3.163-10.011,6.325-20.022,9.487-30.035
	c-1.338-0.432-2.675-0.863-4.014-1.294C295.636,218.435,292.562,228.474,289.49,238.514z M509.467,289.813
	c4.193-7.172,7.485-12.8,10.776-18.429c-0.459-0.369-0.92-0.74-1.379-1.109c-5.382,2.949-10.763,5.896-17.052,9.343
	C504.304,282.937,506.366,285.685,509.467,289.813z M245.205,357.407c-3.887-1.762-6.583-4.118-8.474-3.588
	c-3.265,0.912-6.389,3.26-8.833,5.737c-1.021,1.036-0.151,3.94-0.14,5.994c2.91-0.763,5.976-1.178,8.686-2.387
	C239.084,361.984,241.359,359.989,245.205,357.407z M286.292,313.86c0.701,0.417,1.403,0.832,2.104,1.248
	c2.51-4.14,5.833-8.071,6.987-12.559c0.309-1.199-6.013-4.103-11.381-7.577C284.985,303.083,285.639,308.472,286.292,313.86z
	 M280.978,203.583c1.304,0.303,2.606,0.605,3.91,0.908c2.236-9.859,4.472-19.719,6.708-29.578c-1.257-0.294-2.514-0.586-3.771-0.879
	C285.542,183.884,283.26,193.733,280.978,203.583z M348.601,114.901c-3.365,4.576-6.846,7.389-6.37,9.101
	c0.759,2.732,4.15,4.733,6.429,7.043c2.011-2.086,5.555-4.115,5.637-6.273C354.392,122.231,351.484,119.578,348.601,114.901z
	 M326.305,169.324c7.361-3.183,17.578,0.012,15.397-13.468C336.604,160.439,325.76,155.623,326.305,169.324z M515.715,153.081
	c20.346,1.73,28.19-0.734,28.372-8.066C535.34,147.501,526.644,149.973,515.715,153.081z M345.131,196.254
	c-12.665,5.545-12.665,5.545-7.425,13.35C343.202,207.112,350.805,205.916,345.131,196.254z M301.368,111.402
	c-9.702,8.007-8.641,14.808,1.653,19.193C302.504,124.597,301.987,118.6,301.368,111.402z M609.229,238.489
	c-5.157,2.85-9.202,5.086-13.247,7.322c0.302,0.642,0.604,1.282,0.906,1.923c5.268,0,10.535,0,16.764,0
	C612.079,244.448,610.983,242.159,609.229,238.489z M196.583,383.166c5.221-3.217,9.717-5.987,14.214-8.758
	C198.878,370.136,195.753,372.377,196.583,383.166z M676.027,163.342c0.724-0.849,1.447-1.699,2.172-2.548
	c-6.978-5.995-13.954-11.99-20.931-17.985c-0.785,0.921-1.569,1.843-2.354,2.764C661.952,151.496,668.989,157.419,676.027,163.342z
	 M572.163,100.2c-12.126-0.717-15.103,6.565-19.361,12.31c0.683,0.814,1.364,1.627,2.046,2.44
	C560.139,110.444,565.429,105.937,572.163,100.2z"/>
<path fill-rule="evenodd" clip-rule="evenodd" fill="#A7A9AC" d="M257.251,494.342c-2.287,11.796,0.471,16.159,12.112,18.474
	c6.199,1.232,12.579,2.288,18.866,2.226c45.782-0.444,91.564-1.07,137.338-2.007c5.508-0.112,11.079-2.086,16.432-3.788
	c10.251-3.259,13.033-6.611,15.646-18.007c4.44,0,9.094,0.303,13.691-0.073c6.359-0.519,9.986,1.014,12.472,7.952
	c4.094,11.436,15.056,14.516,25.805,15.937c10.559,1.396,21.288,1.461,31.936,2.223c3.629,0.258,8.044-0.292,10.664,1.56
	c4.171,2.948,9.786,7.435,10.042,11.565c0.476,7.666-7.132,7.131-12.737,7.119c-148.789-0.312-297.581-0.527-446.368-1.252
	c-15.165-0.073-30.341-3.065-45.445-5.182c-2.585-0.362-5.63-2.629-7.09-4.898c-4.939-7.682-9.261-15.761-12.458-21.319
	c3.723-6.091,5.48-10.057,8.196-13.197c7.292-8.434,14.797-16.712,22.726-24.537c1.34-1.323,5.54-0.878,7.834,0.109
	c6.093,2.62,11.867,5.981,18.637,9.501c-3.176,3.541-6.564,6.94-9.517,10.684c-9.104,11.542-6.892,21.009,7.244,23.449
	c16.612,2.867,33.717,3.666,50.622,3.814c12.595,0.112,25.3-1.694,37.779-3.732c5.629-0.92,12.521-3.099,15.833-7.159
	c5.263-6.454,10.978-6.853,18.158-7.003C229.262,496.514,242.837,495.251,257.251,494.342z"/>
<path fill-rule="evenodd" clip-rule="evenodd" fill="#939598" d="M742.446,640.232c-8.113-14.028-16.226-28.056-24.837-42.945
	c4.16-2.424,7.144-4.16,11.41-6.645c5.411,16.687,17.887,29.811,18.796,47.276C746.025,638.69,744.235,639.461,742.446,640.232z"/>
</svg>
